<?xml version="1.0" standalone="no"?>
<!DOCTYPE svg PUBLIC "-//W3C//DTD SVG 1.1//EN" "http://www.w3.org/Graphics/SVG/1.1/DTD/svg11.dtd" >
<svg xmlns="http://www.w3.org/2000/svg">
<metadata>Generated by IcoMoon</metadata>
<defs>
<font id="icomoon" horiz-adv-x="1024">
<font-face units-per-em="1024" ascent="960" descent="-64" />
<missing-glyph horiz-adv-x="1024" />
<glyph unicode="&#x20;" horiz-adv-x="512" d="" />
<glyph unicode="&#xe900;" glyph-name="close" d="M602.561 447.989l402.675 402.675c11.595 11.583 18.767 27.592 18.767 45.275s-7.172 33.692-18.767 45.275l-0.001 0.001c-11.583 11.595-27.592 18.767-45.275 18.767s-33.692-7.172-45.275-18.767l-402.676-402.676-402.697 402.675c-11.583 11.595-27.592 18.767-45.275 18.767s-33.692-7.172-45.275-18.767l-0.001-0.001c-11.595-11.583-18.767-27.592-18.767-45.275s7.172-33.692 18.767-45.275l402.698-402.676-402.697-402.675c-11.582-11.585-18.746-27.588-18.746-45.265 0-35.358 28.663-64.021 64.021-64.021 17.682 0 33.689 7.168 45.275 18.757l402.697 402.675 402.675-402.675c12.509-12.509 28.903-18.763 45.275-18.763s32.766 6.254 45.275 18.763c11.595 11.583 18.767 27.592 18.767 45.275s-7.172 33.692-18.767 45.275l-402.676 402.655z" />
<glyph unicode="&#xe901;" glyph-name="clothes" d="M656.568-64c3.484 9.064 5.502 19.55 5.502 30.507 0 23.008-8.898 43.938-23.441 59.536l0.048-0.052c14.499 15.731 23.39 36.824 23.39 59.994s-8.89 44.263-23.446 60.055l0.056-0.062c14.52 15.872 23.415 37.1 23.415 60.405 0 49.497-40.125 89.622-89.622 89.622-0.139 0-0.277 0-0.416-0.001h-329.945v121.999h-90.278c-16.567 0-29.997 13.43-29.997 29.997v0 242.109c0.047 16.509 13.44 29.874 29.956 29.874 0.014 0 0.029 0 0.043 0h292.909l97.090 48.545v41.446c0 16.567 13.43 29.997 29.997 29.997v0c16.567 0 29.997 13.43 29.997 29.997s-13.43 29.997-29.997 29.997c-16.567 0-29.997-13.43-29.997-29.997v0c0-16.578-13.439-30.017-30.017-30.017s-30.017 13.439-30.017 30.017v0c0.051 49.662 40.322 89.901 89.991 89.901 49.701 0 89.991-40.29 89.991-89.991 0-38.871-24.646-71.987-59.163-84.572l-0.626-0.199v-16.414l97.090-48.545h294.881c16.567 0 29.997-13.43 29.997-29.997v0-242.109c0-16.567-13.43-29.997-29.997-29.997v0h-89.991v-452.047c0-16.567-13.43-29.997-29.997-29.997v0zM483.768 672.341c8.477-41.58 44.749-72.426 88.226-72.426s79.75 30.846 88.127 71.847l0.099 0.579-88.226 44.113zM29.997-64c-16.567 0-29.997 13.43-29.997 29.997s13.43 29.997 29.997 29.997h541.997c16.567 0 29.997-13.43 29.997-29.997s-13.43-29.997-29.997-29.997v0zM29.997 55.988c-16.567 0-29.997 13.43-29.997 29.997s13.43 29.997 29.997 29.997h541.997c16.567 0 29.997-13.43 29.997-29.997s-13.43-29.997-29.997-29.997v0zM29.997 175.976c-16.567 0-29.997 13.43-29.997 29.997s13.43 29.997 29.997 29.997h541.997c16.567 0 29.997-13.43 29.997-29.997s-13.43-29.997-29.997-29.997v0z" />
<glyph unicode="&#xe902;" glyph-name="grid" d="M136.533 960h136.533c75.405 0 136.533-61.128 136.533-136.533v-136.533c0-75.405-61.128-136.533-136.533-136.533h-136.533c-75.405 0-136.533 61.128-136.533 136.533v136.533c0 75.405 61.128 136.533 136.533 136.533zM136.533 345.6h136.533c75.405 0 136.533-61.128 136.533-136.533v-136.533c0-75.405-61.128-136.533-136.533-136.533h-136.533c-75.405 0-136.533 61.128-136.533 136.533v136.533c0 75.405 61.128 136.533 136.533 136.533zM750.933 960h136.533c75.405 0 136.533-61.128 136.533-136.533v-136.533c0-75.405-61.128-136.533-136.533-136.533h-136.533c-75.405 0-136.533 61.128-136.533 136.533v136.533c0 75.405 61.128 136.533 136.533 136.533zM750.933 345.6h136.533c75.405 0 136.533-61.128 136.533-136.533v-136.533c0-75.405-61.128-136.533-136.533-136.533h-136.533c-75.405 0-136.533 61.128-136.533 136.533v136.533c0 75.405 61.128 136.533 136.533 136.533z" />
<glyph unicode="&#xe903;" glyph-name="home" horiz-adv-x="1045" d="M1032.478 524.635l-486.565 426.446c-6.264 5.513-14.534 8.877-23.591 8.877s-17.327-3.364-23.63-8.911l0.040 0.034-486.565-426.446c-7.101-6.56-11.533-15.919-11.533-26.313 0-19.763 16.021-35.785 35.785-35.785 8.75 0 16.767 3.141 22.984 8.356l-0.055-0.045 37.657 33.032v-532.095c0-19.763 16.021-35.785 35.785-35.785v0h779.121c19.763 0 35.785 16.021 35.785 35.785v0 531.819l37.657-33.032c6.162-5.17 14.179-8.311 22.929-8.311 19.763 0 35.785 16.021 35.785 35.785 0 10.394-4.432 19.754-11.509 26.291l-0.024 0.022zM439.769 7.515v294.758h165.161v-294.703h-165.161zM876.126 566.255v-558.741h-199.57v330.323c0 19.763-16.021 35.785-35.785 35.785v0h-236.731c-19.763 0-35.785-16.021-35.785-35.785v0-330.323h-199.625v558.796s0 0 0 0l353.775 310.063 353.775-310.063s-0.055 0.11-0.055 0z" />
<glyph unicode="&#xe904;" glyph-name="bookmark" horiz-adv-x="768" d="M0-64v928.014c0 53.011 42.974 95.986 95.986 95.986v0h576.123c53.011 0 95.986-42.974 95.986-95.986v0-928.014l-384.11 224.022z" />
<glyph unicode="&#xe905;" glyph-name="invite" horiz-adv-x="1021" d="M991.023 582.523l-127.028 105.992v55.892c0 0.015 0 0.033 0 0.051 0 42.667-34.531 77.27-77.171 77.385h-82.325l-129.315 108.025c-17.21 14.889-39.811 23.96-64.53 23.96s-47.32-9.071-64.656-24.066l0.125 0.106-129.315-108.025h-82.314c-42.699-0.029-77.306-34.636-77.335-77.332v-55.895l-126.876-106.094c-17.004-14.289-27.738-35.564-27.743-59.347v-485.249c0.058-54.895 44.543-99.38 99.432-99.438h817.356c54.895 0.058 99.38 44.543 99.438 99.432v485.253c-0.005 23.783-10.739 45.059-27.625 59.251l-0.118 0.097zM863.995 602.136l69.916-58.281-69.764-58.331zM488.754 879.108l0.305 0.254c5.747 4.991 13.303 8.032 21.569 8.032s15.822-3.042 21.61-8.067l-0.041 0.034 0.305-0.254 68.595-57.264h-180.888zM223.468 673.221v0 71.136c0.029 6.078 4.948 10.997 11.023 11.026h552.322c6.078-0.029 10.997-4.948 11.026-11.023v-314.169l-265.591-221.842c-5.747-4.991-13.303-8.032-21.569-8.032s-15.822 3.042-21.61 8.067l0.041-0.034-0.305 0.254-265.337 221.588zM157.413 602.085v-116.866l-70.018 58.636zM952.712 37.927c-0.029-18.285-14.844-33.1-33.126-33.129h-817.608c-18.285 0.029-33.1 14.844-33.129 33.126v435.049l377.325-315.030c17.21-14.889 39.811-23.96 64.53-23.96s47.32 9.071 64.656 24.066l-0.125-0.106 377.477 315.030z" />
<glyph unicode="&#xe906;" glyph-name="like" horiz-adv-x="1159" d="M1074.554 859.392c-53.792 61.906-132.648 100.82-220.593 100.82-102.595 0-192.82-52.958-244.832-133.029l-0.689-1.132c-9.501-13.277-19.059-28.576-27.677-44.46l-1.163-2.343c-9.779 18.225-19.337 33.525-29.761 48.165l0.921-1.362c-52.701 81.203-142.926 134.161-245.521 134.161-87.945 0-166.801-38.914-220.289-100.463l-0.304-0.357c-52.626-61.070-84.676-141.17-84.676-228.756 0-1.615 0.011-3.227 0.033-4.837l-0.003 0.244c3.802-109.87 48.236-208.681 118.648-282.489l-0.161 0.17c91.349-99.333 188.232-190.021 291.502-273.091l5.112-3.977c44.844-38.218 91.231-77.769 140.618-120.863l1.5-1.292c5.941-5.215 13.779-8.398 22.36-8.398s16.419 3.182 22.398 8.431l1.462 1.259c49.387 43.219 95.857 82.729 140.618 120.863 108.366 87.046 205.236 177.734 294.865 275.187l1.708 1.881c70.248 73.64 114.681 172.449 118.467 281.587l0.020 0.732c0.020 1.394 0.031 3.040 0.031 4.689 0 87.542-32.017 167.605-84.981 229.12l0.387-0.46zM700.171 118.336c-38.676-32.966-78.477-66.683-120.404-103.317-41.969 36.467-81.77 70.392-120.446 103.359-235.558 200.757-391.221 333.415-391.221 507.707-0.025 1.403-0.039 3.057-0.039 4.715 0 70.291 25.59 134.606 67.963 184.135l-0.324-0.387c41.772 47.672 102.773 77.608 170.767 77.608 0.566 0 1.131-0.002 1.695-0.006l-0.087 0.001c78.492-2.038 146.927-43.279 186.668-104.793l0.544-0.899c21.029-29.722 38.64-63.937 51.131-100.525l0.84-2.834c4.586-13.697 17.3-23.392 32.279-23.392s27.693 9.695 32.209 23.153l0.070 0.24c13.345 39.422 30.97 73.637 52.86 104.623l-0.847-1.264c40.253 63.754 110.33 105.482 190.154 105.482 67.633 0 128.269-29.955 169.365-77.322l0.236-0.278c42.049-49.142 67.639-113.456 67.639-183.747 0-1.658-0.014-3.312-0.043-4.964l0.003 0.248c0-174.168-155.621-306.783-391.012-507.541z" />
<glyph unicode="&#xe907;" glyph-name="linear" d="M136.533 960h750.933c75.405 0 136.533-61.128 136.533-136.533v-477.867c0-75.405-61.128-136.533-136.533-136.533h-750.933c-75.405 0-136.533 61.128-136.533 136.533v477.867c0 75.405 61.128 136.533 136.533 136.533zM68.267 72.533h887.467c37.703 0 68.267-30.564 68.267-68.267s-30.564-68.267-68.267-68.267h-887.467c-37.703 0-68.267 30.564-68.267 68.267s30.564 68.267 68.267 68.267z" />
<glyph unicode="&#xe908;" glyph-name="notifications" horiz-adv-x="870" d="M435.2-64c56.484 0.174 102.226 45.916 102.4 102.383v0.017h-204.8c0.174-56.484 45.916-102.226 102.383-102.4h0.017zM768 243.2v281.6c0.002 0.411 0.003 0.897 0.003 1.384 0 155.912-108.297 286.53-253.771 320.734l-2.232 0.442v35.84c0 42.415-34.385 76.8-76.8 76.8s-76.8-34.385-76.8-76.8v0-35.84c-147.706-34.646-256.003-165.264-256.003-321.176 0-0.486 0.001-0.973 0.003-1.459v0.075-281.6l-102.4-102.4v-51.2h870.4v51.2zM665.6 192h-460.8v332.8c0 127.246 103.154 230.4 230.4 230.4s230.4-103.154 230.4-230.4v0z" />
<glyph unicode="&#xe909;" glyph-name="pending-payment" horiz-adv-x="1097" d="M832.326-63.945c-73.988 1.197-139.876 34.874-184.191 87.357l-0.301 0.366c-45.046 50.556-72.872 117.313-73.795 190.552l-0.002 0.19v165.851c0.020 17.59 10.47 32.734 25.496 39.583l0.272 0.111 213.824 95.508c5.21 2.415 11.308 3.824 17.734 3.824 1.478 0 2.938-0.074 4.377-0.22l-0.181 0.015c1.253 0.129 2.707 0.203 4.178 0.203 6.433 0 12.537-1.408 18.021-3.932l-0.268 0.111 213.824-95.508c15.308-6.95 25.763-22.101 25.769-39.694v-165.852c-0.925-73.43-28.751-140.187-74.053-191.035l0.256 0.292c-44.617-52.849-110.505-86.526-184.288-87.72l-0.204-0.003zM661.101 352.245v-137.56c-0.010-0.732-0.016-1.596-0.016-2.461 0-98.322 74.694-179.199 170.434-188.982l0.807-0.067h5.866c96.551 9.877 171.239 90.765 171.239 189.098 0 0.848-0.006 1.694-0.017 2.54l0.001-0.128v137.56l-174.185 77.854zM171.334 158.432c-0.065 0-0.143 0-0.22 0-94.292 0-170.771 76.267-171.113 170.479v460.578c0.312 94.268 76.802 170.566 171.114 170.566 0.077 0 0.155 0 0.232 0h753.856c0.049 0 0.107 0 0.166 0 94.322 0 170.825-76.292 171.168-170.534v-226.248c-0.062-23.571-19.185-42.655-42.765-42.655-0.019 0-0.039 0-0.058 0h0.003c-0.016 0-0.036 0-0.055 0-23.58 0-42.702 19.084-42.765 42.649v85.262h-925.202v-319.531c0.187-47.125 38.433-85.256 85.584-85.256 0.019 0 0.039 0 0.058 0h285.096c0.016 0 0.036 0 0.055 0 23.58 0 42.702-19.084 42.765-42.649v-0.006c-0.062-23.571-19.185-42.655-42.765-42.655-0.019 0-0.039 0-0.058 0h0.003zM85.694 789.489v-55.704h925.202v55.704c-0.187 47.125-38.433 85.256-85.584 85.256-0.019 0-0.039 0-0.058 0h-753.865c-0.033 0-0.071 0-0.11 0-47.171 0-85.428-38.161-85.584-85.296v-0.015z" />
<glyph unicode="&#xe90a;" glyph-name="Profile" d="M938.799 230.425c-44.888 36.828-96.263 68.253-151.682 92.063l-4.155 1.588c-46.265 21.292-85.523 43.591-122.678 68.761l2.979-1.903c59.798 67.52 98.31 155.114 104.328 251.515l0.060 1.204c0.582 8.053 0.913 17.448 0.913 26.921 0 56.066-11.617 109.419-32.575 157.782l0.992-2.57c-27.439 54.68-88.73 119.301-224.982 119.301s-197.592-64.621-224.982-119.301c-19.872-45.668-31.434-98.868-31.434-154.768 0-9.717 0.349-19.352 1.036-28.894l-0.074 1.28c6.050-97.61 44.568-185.211 104.771-253.159l-0.383 0.44c-34.2-23.295-73.476-45.596-114.546-64.688l-5.202-2.171c-59.574-25.405-110.948-56.83-156.964-94.548l1.127 0.896c-43.825-52.517-70.434-120.729-70.437-195.156v0c-0.006-0.37-0.009-0.806-0.009-1.243 0-45.751 37.077-82.841 82.822-82.864h828.498c0.003 0 0.007 0 0.010 0 45.765 0 82.864 37.1 82.864 82.864 0 0.454-0.004 0.908-0.011 1.361l0.001-0.068c0 0.098 0 0.214 0 0.33 0 74.362-26.55 142.522-70.688 195.519l0.4-0.493zM941.036 19.212c-3.765-3.836-9.004-6.214-14.799-6.214-0.040 0-0.080 0-0.12 0h-828.39c-0.034 0-0.074 0-0.114 0-5.795 0-11.034 2.378-14.795 6.211l-0.003 0.003c-3.69 3.777-5.967 8.95-5.967 14.653 0 0.091 0.001 0.182 0.002 0.273v-0.014c0.031 57.692 19.749 110.774 52.8 152.895l-0.407-0.538c40.389 31.577 86.389 59.058 135.65 80.442l4.081 1.578c51.413 22.415 95.672 48.279 136.429 78.589l-1.818-1.292 41.954 39.767-36.437 44.738c-51.001 56.923-84.212 130.731-90.347 212.095l-0.073 1.205c-0.638 7.848-1.002 16.99-1.002 26.216 0 46.185 9.115 90.24 25.644 130.466l-0.832-2.287c28.483 56.37 85.449 84.952 169.507 84.952s141.024-28.583 169.507-84.903c15.696-37.949 24.809-82.015 24.809-128.21 0-9.215-0.363-18.346-1.075-27.379l0.076 1.193c-6.124-82.616-39.311-156.487-90.622-213.792l0.301 0.342-36.437-44.738 41.954-39.767c38.938-29.004 83.197-54.867 130.235-75.578l4.376-1.719c53.344-22.926 99.348-50.411 141.117-83.063l-1.386 1.043c32.477-40.837 52.106-93.156 52.106-150.060 0-0.825-0.004-1.65-0.012-2.473l0.001 0.126c0.001-0.063 0.001-0.138 0.001-0.212 0-5.672-2.278-10.811-5.968-14.554l0.002 0.002z" />
<glyph unicode="&#xe90b;" glyph-name="rate" d="M10.039-53.911v501.936c0 0.074 0 0.163 0 0.251 0 277.073 224.612 501.685 501.685 501.685 0.088 0 0.176 0 0.264 0h-0.013c0.074 0 0.163 0 0.251 0 277.073 0 501.685-224.612 501.685-501.685 0-0.088 0-0.176 0-0.264v0.013c0-0.074 0-0.163 0-0.251 0-277.073-224.612-501.685-501.685-501.685-0.088 0-0.176 0-0.264 0h0.013zM68.866 448.025v-443.109h443.109c0.074 0 0.163 0 0.251 0 244.584 0 442.858 198.274 442.858 442.858 0 0.088 0 0.177 0 0.265v-0.014c0 0.074 0 0.163 0 0.251 0 244.584-198.274 442.858-442.858 442.858-0.088 0-0.177 0-0.265 0h0.014c-0.074 0-0.163 0-0.251 0-244.584 0-442.858-198.274-442.858-442.858 0-0.088 0-0.177 0-0.265v0.014zM511.975 214.826l-205.794-78.603 11.093 220.199-138.434 171.612 212.871 57.472 120.465 184.662 120.465-184.662 212.871-57.472-138.434-171.612 11.093-220.199zM654.675 223.308l-7.73 152.488 95.92 118.909-147.469 39.804-83.422 127.944-83.422-127.944-147.469-39.804 95.92-118.909-7.73-152.488 142.7 54.46z" />
<glyph unicode="&#xe90c;" glyph-name="selected" horiz-adv-x="1424" d="M504.554 17.756v0c0.013 0 0.028 0 0.043 0 19.812 0 37.704 8.222 50.45 21.44l0.020 0.021 764.131 728.801c11.309 12.428 18.234 29.020 18.234 47.229 0 38.815-31.466 70.281-70.281 70.281-20.606 0-39.14-8.868-51.996-22.995l-0.051-0.057-710.405-675.221-301.915 298.849c-12.562 11.934-29.588 19.275-48.328 19.275-38.783 0-70.223-31.44-70.223-70.223 0-18.74 7.341-35.766 19.304-48.358l-0.029 0.030 350.385-347.465c12.766-13.239 30.658-21.461 50.471-21.461 0.015 0 0.030 0 0.046 0h-0.002z" />
<glyph unicode="&#xe90d;" glyph-name="share" horiz-adv-x="939" d="M778.68 639.992c-88.368 0-160.004 71.636-160.004 160.004s71.636 160.004 160.004 160.004c88.368 0 160.004-71.636 160.004-160.004v0c-0.119-88.32-71.684-159.885-159.993-160.004h-0.011zM778.68 895.982c-53.011 0-95.986-42.974-95.986-95.986s42.974-95.986 95.986-95.986c53.011 0 95.986 42.974 95.986 95.986v0c-0.072 52.983-43.003 95.914-95.979 95.986h-0.007zM778.68-64c-88.368 0-160.004 71.636-160.004 160.004s71.636 160.004 160.004 160.004c88.368 0 160.004-71.636 160.004-160.004v0c-0.119-88.32-71.684-159.885-159.993-160.004h-0.011zM778.68 191.989c-53.011 0-95.986-42.974-95.986-95.986s42.974-95.986 95.986-95.986c53.011 0 95.986 42.974 95.986 95.986v0c-0.072 52.983-43.003 95.914-95.979 95.986h-0.007zM160.004 287.975c-88.368 0-160.004 71.636-160.004 160.004s71.636 160.004 160.004 160.004c88.368 0 160.004-71.636 160.004-160.004v0c-0.119-88.32-71.684-159.885-159.993-160.004h-0.011zM160.004 543.965c-53.011 0-95.986-42.974-95.986-95.986s42.974-95.986 95.986-95.986c53.011 0 95.986 42.974 95.986 95.986v0c-0.072 52.983-43.003 95.914-95.979 95.986h-0.007zM271.406 479.148c-0.033 0-0.073 0-0.112 0-17.655 0-31.967 14.312-31.967 31.967 0 11.858 6.456 22.208 16.046 27.726l0.155 0.082 395.956 225.745c4.404 2.429 9.653 3.858 15.236 3.858 17.678 0 32.009-14.331 32.009-32.009 0-11.609-6.18-21.774-15.429-27.386l-0.142-0.080-395.914-225.703c-4.539-2.631-9.983-4.188-15.791-4.201h-0.004zM667.446 127.131c-0.003 0-0.006 0-0.010 0-5.808 0-11.252 1.559-15.936 4.282l0.152-0.081-395.914 225.703c-9.101 5.749-15.058 15.755-15.058 27.152 0 17.678 14.331 32.009 32.009 32.009 5.379 0 10.447-1.327 14.897-3.67l-0.175 0.084 395.914-225.703c9.721-5.617 16.158-15.961 16.158-27.809 0-17.678-14.331-32.009-32.009-32.009-0.009 0-0.019 0-0.028 0h0.002z" />
<glyph unicode="&#xe90e;" glyph-name="support" d="M432.026 15.974c0 44.169 35.806 79.974 79.974 79.974 0.018 0 0.036 0 0.054 0h-0.003c0.011 0 0.024 0 0.037 0 29.954 0 56.060-16.478 69.746-40.865l0.208-0.402v1.229h122.010c22.061 0.058 39.929 17.926 39.987 39.982v418.003c0 0.015 0 0.033 0 0.051 0 22.056 17.88 39.936 39.936 39.936 0.018 0 0.036 0 0.054 0h79.971c88.33-0.087 159.913-71.67 160-159.992v-135.995c-0.087-88.33-71.67-159.913-159.992-160h-39.996v-2.048c-0.058-66.258-53.755-119.955-120.007-120.013h-122.015v1.28c-13.929-24.704-39.997-41.114-69.898-41.114-0.032 0-0.065 0-0.097 0h0.005c-44.169 0-79.974 35.806-79.974 79.974v0zM824.013 239.974v-62.003h39.987c44.155 0.058 79.938 35.823 80.026 79.966v135.995c-0.058 44.145-35.829 79.916-79.969 79.974h-39.993zM160 97.997c-88.33 0.087-159.913 71.67-160 159.992v135.995c0.054 58.883 31.887 110.319 79.27 138.087l0.755 0.409c0.9 117.704 49.073 223.983 126.445 300.934l0.019 0.019c77.748 78.182 185.388 126.568 304.329 126.568 0.416 0 0.831-0.001 1.246-0.002h-0.065c0.278 0.001 0.607 0.001 0.936 0.001 93.209 0 179.477-29.715 249.849-80.188l-1.288 0.878c70.38-50.129 124.307-119.221 154.767-199.836l0.984-2.967c1.526-4.069 2.409-8.771 2.409-13.68 0-17.094-10.712-31.685-25.789-37.429l-0.275-0.092c-4.069-1.526-8.771-2.409-13.68-2.409-17.094 0-31.685 10.712-37.429 25.789l-0.092 0.275c-51.417 135.168-179.763 229.54-330.197 229.888h-0.043c-185.157-0.237-336.846-143.21-350.952-324.78l-0.076-1.211h79.002c0.015 0 0.033 0 0.051 0 22.056 0 39.936-17.88 39.936-39.936 0-0.018 0-0.036 0-0.054v0.003-375.962c0-0.015 0-0.033 0-0.051 0-22.056-17.88-39.936-39.936-39.936-0.018 0-0.036 0-0.054 0h0.003zM80.026 393.984v-135.987c0.058-44.145 35.829-79.916 79.969-79.974h39.993v295.987h-39.987c-44.163-0.058-79.945-35.858-79.974-80.023v-0.003z" />
<glyph unicode="&#xe90f;" glyph-name="arrow" horiz-adv-x="620" d="M579.277 448.123v0c0 0.014 0 0.031 0 0.048 0 18.998-7.898 36.151-20.591 48.355l-0.022 0.021-403.825 403.825c-11.892 10.82-27.769 17.445-45.192 17.445-37.146 0-67.259-30.113-67.259-67.259 0-19.722 8.489-37.462 22.012-49.765l0.054-0.049 352.703-352.621-357.447-357.202c-11.084-11.964-17.884-28.035-17.884-45.695 0-37.179 30.139-67.318 67.318-67.318 17.66 0 33.731 6.8 45.739 17.924l-0.044-0.040 403.825 403.825c12.714 12.225 20.613 29.378 20.613 48.375 0 0.017 0 0.033 0 0.050v-0.003z" />
<glyph unicode="&#xe910;" glyph-name="star" d="M512.060 136.86l316.397-200.86-83.752 378.879 279.295 254.761-368.244 33.235-143.696 357.125-143.817-357.125-368.244-33.356 279.295-254.761-83.752-378.879z" />
<glyph unicode="&#xe911;" glyph-name="basket" horiz-adv-x="983" d="M732.996 68.88h-483.48c-44.344 0.491-81.063 32.524-88.803 74.694l-0.085 0.56-81.006 437.784h823.269l-80.953-437.784c-7.849-42.737-44.584-74.768-88.89-75.254h-0.052zM662.269 477.052c-12.589 0-22.795-10.205-22.795-22.795v0-68.437c0.030-12.577 10.218-22.764 22.792-22.795h0.003c0 0 0 0 0 0 12.6 0 22.817 10.199 22.848 22.792v68.44c-0.030 12.596-10.248 22.795-22.848 22.795 0 0 0 0 0 0v0zM320.296 477.052c-12.577-0.030-22.764-10.218-22.795-22.792v-68.44c0.030-12.577 10.218-22.764 22.792-22.795h0.003c12.577 0.030 22.764 10.218 22.795 22.792v68.44c-0.030 12.577-10.218 22.764-22.792 22.795h-0.003zM343.091 604.873h-45.642v134.531c0.121 107.018 86.843 193.74 193.849 193.861h0.011c106.995-0.151 193.686-86.862 193.807-193.849v-134.489h-45.589v134.531c-0.091 81.833-66.39 148.15-148.207 148.271h-0.012c-81.829-0.121-148.127-66.439-148.218-148.263v-134.54z" />
<glyph unicode="&#xe912;" glyph-name="mail" horiz-adv-x="1389" d="M1220.868 952.789h-1052.557c-88.923-0.123-160.977-72.176-161.1-161.088v-687.39c0.123-88.923 72.176-160.977 161.088-161.1h1052.857c88.923 0.123 160.977 72.176 161.1 161.088v687.39c-0.123 88.999-72.3 161.1-161.316 161.1-0.025 0-0.051 0-0.076 0h0.004zM1274.592 104.311c-0.041-29.654-24.070-53.683-53.72-53.724h-1052.561c-29.654 0.041-53.683 24.070-53.724 53.72v687.382c0.041 29.654 24.070 53.683 53.72 53.724h1052.849c29.654-0.041 53.683-24.070 53.724-53.72v-0.004zM1265.433 885.796l-570.844-424.599-570.844 424.599-64.108-86.535 634.952-472.266 634.952 472.266z" />
<glyph unicode="&#xe913;" glyph-name="password" horiz-adv-x="896" d="M716.753 268.707c0-23.084-18.714-41.798-41.798-41.798s-41.798 18.714-41.798 41.798c0 23.084 18.714 41.798 41.798 41.798s41.798-18.714 41.798-41.798zM856.017 235.985c22.082 0 39.983 17.901 39.983 39.983v0 148.015c-0.106 88.31-71.667 159.871-159.967 159.977h-48.091v141.126c-2.652 130.519-109.083 235.308-239.988 235.308s-237.336-104.79-239.984-235.061l-0.004-0.247v-141.079h-47.942c-88.346-0.079-159.944-71.677-160.023-160.015v-328.014c0.106-88.326 71.693-159.897 160.016-159.977h575.961c88.33 0.079 159.917 71.65 160.023 159.967v0.010c0 22.095-17.911 40.006-40.006 40.006s-40.006-17.911-40.006-40.006v0c-0.053-44.168-35.844-79.959-80.006-80.012h-575.959c-44.168 0.053-79.959 35.844-80.012 80.006v328.011c0.132 44.108 35.893 79.819 80.006 79.872h575.959c44.168-0.053 79.959-35.844 80.012-80.006v-148.066c0.106-22.002 17.966-39.796 39.982-39.796 0.017 0 0.033 0 0.050 0h-0.003zM607.93 584.006h-320v141.079c2.631 86.347 73.258 155.343 160 155.343s157.369-68.996 159.994-155.101l0.006-0.242zM416.116 268.707c0-23.084-18.714-41.798-41.798-41.798s-41.798 18.714-41.798 41.798c0 23.084 18.714 41.798 41.798 41.798s41.798-18.714 41.798-41.798zM266.799 268.707c0-23.084-18.714-41.798-41.798-41.798s-41.798 18.714-41.798 41.798c0 23.084 18.714 41.798 41.798 41.798s41.798-18.714 41.798-41.798zM565.434 268.707c0-23.084-18.714-41.798-41.798-41.798s-41.798 18.714-41.798 41.798c0 23.084 18.714 41.798 41.798 41.798s41.798-18.714 41.798-41.798z" />
<glyph unicode="&#xe914;" glyph-name="all-order" horiz-adv-x="1159" d="M135.81 702.233c0.034 0 0.073 0 0.113 0 67.261 0 121.788 54.526 121.788 121.788s-54.526 121.788-121.788 121.788c-67.162 0-121.626-54.365-121.787-121.49v-0.015c0-0.067 0-0.147 0-0.226 0-67.233 54.455-121.748 121.665-121.844h0.009zM135.81 889.268c35.973 0 65.134-29.162 65.134-65.134s-29.162-65.134-65.134-65.134c-35.973 0-65.134 29.162-65.134 65.134 0 0.060 0 0.119 0 0.179v-0.009c0.129 35.887 29.234 64.933 65.131 64.965h0.003zM135.81 326.297c67.199 0 121.674 54.476 121.674 121.675s-54.476 121.675-121.675 121.675c-67.139 0-121.578-54.379-121.674-121.496v-0.009c0 0 0 0 0 0 0-67.233 54.455-121.747 121.665-121.844h0.009zM135.81 512.88c35.972-0.001 65.133-29.162 65.133-65.134s-29.162-65.134-65.134-65.134c-35.973 0-65.134 29.162-65.134 65.134 0 0.139 0 0.278 0.001 0.417v-0.021c0.129 35.887 29.234 64.933 65.131 64.965h0.003zM135.81-49.865c67.199 0 121.674 54.476 121.674 121.675s-54.476 121.675-121.675 121.675c-67.139 0-121.578-54.379-121.674-121.496v-0.009c0 0 0 0 0 0 0-67.233 54.455-121.747 121.665-121.844h0.009zM135.81 137.17c35.973 0 65.134-29.162 65.134-65.134s-29.162-65.134-65.134-65.134c-35.953 0-65.102 29.129-65.134 65.075v0.003c0 35.984 29.155 65.159 65.131 65.191h0.003zM420.207 795.751h696.236c15.613 0 28.27 12.657 28.27 28.27s-12.657 28.27-28.27 28.27v0h-696.236c-15.613 0-28.27-12.657-28.27-28.27s12.657-28.27 28.27-28.27v0zM420.207 419.589h696.236c15.613 0 28.27 12.657 28.27 28.27s-12.657 28.27-28.27 28.27v0h-696.236c-15.613 0-28.27-12.657-28.27-28.27s12.657-28.27 28.27-28.27v0zM420.207 43.653h696.236c15.613 0 28.27 12.657 28.27 28.27s-12.657 28.27-28.27 28.27v0h-696.236c-15.613 0-28.27-12.657-28.27-28.27s12.657-28.27 28.27-28.27v0z" />
<glyph unicode="&#xe915;" glyph-name="Beauty" horiz-adv-x="862" d="M534.502-64c-26.147 0.024-47.336 21.213-47.36 47.358v512.296c1.581 102.226 84.82 184.488 187.273 184.488s185.693-82.262 187.272-184.339l0.002-0.148v-512.294c-0.024-26.147-21.213-47.336-47.358-47.36h-0.002zM47.318-64c-26.128 0.048-47.294 21.228-47.318 47.358v236.381c0.017 20.815 13.461 38.487 32.137 44.822l0.334 0.098 10.936 302.834c1.561 32.334 23.893 59.048 53.872 67.178l0.512 0.118-0.294 294.422c-0.022 0.481-0.035 1.045-0.035 1.612 0 7.187 2.049 13.896 5.594 19.574l-0.091-0.156c4.138 5.93 10.929 9.761 18.614 9.761 0.14 0 0.279-0.001 0.418-0.004h-0.021c8.644-0.424 16.4-3.915 22.27-9.398l-0.020 0.019 128.326-107.212c18.318-16.901 30.144-40.601 31.452-67.067l0.009-0.229v-141.533c30.47-8.254 52.778-34.973 54.294-67.133l0.006-0.164 10.936-302.834c18.841-6.502 32.153-24.038 32.26-44.697v-236.392c-0.024-26.147-21.213-47.336-47.358-47.36h-0.002zM99.431 530.564l-9.548-263.634h221.742l-9.548 263.634c-0.802 16.339-14.175 29.3-30.606 29.442h-141.463c-16.427-0.165-29.776-13.118-30.575-29.37l-0.003-0.072z" />
<glyph unicode="&#xe916;" glyph-name="bonus" horiz-adv-x="1013" d="M960.851 389.715l-382.117 382.45c-19.296 19.421-46.014 31.447-75.542 31.463h-0.003c-2.335 0-4.669 0-7.004 0l-276.498-18.511c-30.139-2.145-54.040-26.142-56.024-56.13l-0.010-0.181-6.615-97.892c-15.038 8.771-28.014 18.827-39.522 30.349l-0.002 0.002c-27.688 26.805-46.454 62.678-51.499 102.82l-0.087 0.853c-0.641 4.415-1.008 9.513-1.008 14.696 0 28.804 11.31 54.967 29.732 74.289l-0.041-0.043c23.225 17.858 52.714 28.62 84.717 28.62 43.627 0 82.583-19.999 108.2-51.329l0.198-0.249c4.624-4.624 11.011-7.483 18.066-7.483 14.111 0 25.55 11.439 25.55 25.55 0 7.055-2.86 13.443-7.483 18.066v0c-35.139 40.686-86.796 66.28-144.43 66.28-46.074 0-88.329-16.357-121.272-43.58l0.322 0.258c-27.639-28.387-44.684-67.208-44.684-110.010 0-7.193 0.481-14.274 1.414-21.212l-0.089 0.81c6.302-53.165 30.39-99.78 66.050-134.593l0.045-0.043c20.286-20.31 44.232-36.958 70.765-48.872l1.5-0.602-8.338-123.018c-0.15-2.122-0.236-4.599-0.236-7.096 0-29.595 12.033-56.379 31.473-75.727l382.399-382.343c22.99-23.11 54.814-37.412 89.979-37.412 0.183 0 0.365 0 0.547 0.001h-0.028c0.038 0 0.083 0 0.128 0 35.288 0 67.237 14.296 90.371 37.412l221.576 221.576c22.993 23.113 37.207 54.979 37.207 90.165 0 35.435-14.415 67.503-37.701 90.659l-0.006 0.006zM924.941 245.185l-221.632-221.799c-13.853-13.908-33.020-22.514-54.197-22.514-0.059 0-0.119 0-0.178 0h0.009c-0.050 0-0.11 0-0.169 0-21.177 0-40.344 8.606-54.194 22.511l-382.508 382.397c-10.172 10.137-16.466 24.16-16.466 39.653 0 1.304 0.045 2.598 0.132 3.88l-0.010-0.173 7.449 111.177c4.225-0.611 8.505-1.279 12.73-1.723 6.393-0.611 12.73-1.056 18.9-1.056 0.919-0.020 2.003-0.031 3.089-0.031 42.112 0 80.281 16.881 108.11 44.245l-0.021-0.021c4.624 4.624 7.483 11.011 7.483 18.066 0 14.111-11.439 25.55-25.55 25.55-7.055 0-13.443-2.86-18.066-7.483v0c-19.279-18.381-45.442-29.691-74.246-29.691-5.183 0-10.281 0.366-15.268 1.074l0.573-0.067c-4.892 0.445-9.561 1.279-14.231 2.112l7.449 113.957c0.307 4.691 4.036 8.42 8.7 8.726l0.028 0.001 276.443 18.233c1.279 0 2.557 0 3.836 0 0.010 0 0.021 0 0.033 0 15.49 0 29.521-6.242 39.717-16.347l382.169-382.169c13.918-13.922 22.526-33.152 22.526-54.394s-8.608-40.472-22.526-54.394v0z" />
<glyph unicode="&#xe917;" glyph-name="cart" d="M512.029 960c-282.786 0-512.029-229.243-512.029-512.029s229.243-512.029 512.029-512.029c282.786 0 512.029 229.243 512.029 512.029v0c-0.325 282.655-229.374 511.704-511.998 512.029h-0.031zM512.029 44.946c-222.616 0-403.083 180.466-403.083 403.083s180.466 403.083 403.083 403.083c222.616 0 403.083-180.466 403.083-403.083v0c-0.26-222.512-180.571-402.823-403.058-403.083h-0.025zM778.829 463.78h-230.105v276.673c0.018 0.463 0.029 1.006 0.029 1.551 0 23.292-18.882 42.174-42.174 42.174s-42.174-18.882-42.174-42.174c0-0.546 0.010-1.089 0.031-1.629l-0.002 0.078v-318.848c0-23.292 18.882-42.174 42.174-42.174v0h272.279c0.463-0.018 1.006-0.029 1.551-0.029 23.292 0 42.174 18.882 42.174 42.174s-18.882 42.174-42.174 42.174c-0.546 0-1.089-0.010-1.629-0.031l0.078 0.002z" />
</font>
</defs>
</svg>
